<svg xmlns="http://www.w3.org/2000/svg" width="240" height="52" viewBox="0 0 240 52"><defs><style>.cls-2{fill:#b88b6e}</style></defs><g id="header_logo" transform="translate(-50 -22)"><path id="area" fill="none" d="M0 0h240v52H0z" opacity=".6" transform="translate(50 22)"/><g id="그룹_6" transform="translate(-369.66 -226.86)"><path id="패스_209" d="M447.689 286.877l.325-.44a2.552 2.552 0 001.758.7c.849 0 1.278-.481 1.278-1.057 0-.659-.7-.964-1.35-1.194-.828-.292-1.749-.638-1.749-1.6 0-.817.659-1.507 1.831-1.507a2.69 2.69 0 011.623.6l-.314.417a2.143 2.143 0 00-1.329-.5c-.827 0-1.205.462-1.205.963 0 .619.651.848 1.3 1.09.858.325 1.8.628 1.8 1.706 0 .856-.679 1.59-1.916 1.59a3.259 3.259 0 01-2.051-.764" class="cls-2" transform="translate(6 5.572)"/><path id="패스_210" d="M452.589 284.721a2.67 2.67 0 012.449-2.941c1.35 0 2.157.963 2.157 2.6a3.087 3.087 0 01-.031.44h-3.958a2.112 2.112 0 002.041 2.313 2.5 2.5 0 001.487-.481l.229.451a3.12 3.12 0 01-1.778.544 2.643 2.643 0 01-2.6-2.921m4.051-.387c0-1.351-.617-2.031-1.591-2.031a1.986 1.986 0 00-1.842 2.031z" class="cls-2" transform="translate(7.102 5.572)"/><path id="패스_211" d="M458.045 284.721a2.665 2.665 0 012.585-2.941 2.363 2.363 0 011.633.68l-.345.419a1.828 1.828 0 00-1.276-.565 2.142 2.142 0 00-1.958 2.407c0 1.423.774 2.4 1.947 2.4a2.238 2.238 0 001.457-.617l.292.418a2.7 2.7 0 01-1.779.723c-1.455 0-2.554-1.068-2.554-2.921" class="cls-2" transform="translate(7.804 5.572)"/><path id="패스_212" d="M463.544 281.926h.5l.073 1.038h.021a1.917 1.917 0 011.58-1.183 1.125 1.125 0 01.565.125l-.125.546a1.179 1.179 0 00-.512-.1c-.494 0-1.089.365-1.5 1.4v3.749h-.606z" class="cls-2" transform="translate(8.967 5.574)"/><path id="패스_213" d="M467 284.721a2.67 2.67 0 012.45-2.941c1.351 0 2.156.963 2.156 2.6a2.914 2.914 0 01-.031.44h-3.957a2.112 2.112 0 002.041 2.313 2.5 2.5 0 001.486-.481l.232.451a3.131 3.131 0 01-1.78.544 2.644 2.644 0 01-2.6-2.921m4.052-.387c0-1.351-.619-2.031-1.591-2.031a1.987 1.987 0 00-1.842 2.031z" class="cls-2" transform="translate(9.691 5.572)"/><path id="패스_214" d="M473.009 286.184v-3.475h-.87v-.461l.891-.053.072-1.611h.513v1.616h1.6v.513h-1.6v3.517c0 .7.189 1.161.931 1.161a1.941 1.941 0 00.681-.157l.147.473a3.2 3.2 0 01-.932.208c-1.1 0-1.433-.691-1.433-1.727" class="cls-2" transform="translate(10.778 5.307)"/><path id="패스_215" d="M479.356 281.926h.5l.072.682h.021a3.243 3.243 0 011.863-.827c1.486 0 2.239 1.131 2.239 2.846 0 1.906-1.15 3.015-2.46 3.015a2.758 2.758 0 01-1.643-.68l.011 1.027V290h-.609zm4.052 2.7c0-1.339-.461-2.313-1.706-2.313a2.8 2.8 0 00-1.737.889v3.226a2.564 2.564 0 001.58.679c1.088 0 1.863-.983 1.863-2.481" class="cls-2" transform="translate(12.295 5.472)"/><path id="패스_216" d="M485.386 287.156v-7.495h.606v7.558c0 .261.105.375.251.375a1.072 1.072 0 00.2-.018l.093.479a1.176 1.176 0 01-.408.064c-.5 0-.742-.314-.742-.963" class="cls-2" transform="translate(13.58 5.103)"/><path id="패스_217" d="M488.209 286.1c0-1.236 1.1-1.822 3.558-2.1.023-.828-.219-1.686-1.277-1.686a3.014 3.014 0 00-1.758.639l-.272-.442a3.878 3.878 0 012.114-.73c1.329 0 1.8.952 1.8 2.185v3.54h-.513l-.062-.712h-.02a3.231 3.231 0 01-1.949.847 1.471 1.471 0 01-1.621-1.537m3.558.156v-1.812c-2.2.254-2.95.766-2.95 1.624a1 1 0 001.139 1.056 2.74 2.74 0 001.811-.869" class="cls-2" transform="translate(14.164 5.573)"/><path id="패스_218" d="M493.5 286.877l.326-.44a2.547 2.547 0 001.757.7c.85 0 1.278-.481 1.278-1.057 0-.659-.7-.964-1.35-1.194-.826-.292-1.748-.638-1.748-1.6 0-.817.659-1.507 1.831-1.507a2.689 2.689 0 011.622.6l-.314.417a2.137 2.137 0 00-1.329-.5c-.826 0-1.2.462-1.2.963 0 .619.649.848 1.3 1.09.859.325 1.8.628 1.8 1.706 0 .856-.68 1.59-1.914 1.59a3.266 3.266 0 01-2.053-.764" class="cls-2" transform="translate(15.28 5.572)"/><path id="패스_219" d="M498.86 286.184v-3.475h-.869v-.461l.891-.053.072-1.611h.513v1.616h1.6v.513h-1.6v3.517c0 .7.189 1.161.931 1.161a1.942 1.942 0 00.682-.157l.146.473a3.2 3.2 0 01-.932.208c-1.1 0-1.435-.691-1.435-1.727" class="cls-2" transform="translate(16.231 5.307)"/><path id="패스_220" d="M502.294 280.53a.486.486 0 01.512-.5.492.492 0 11-.512.5m.2 1.79h.606v5.58h-.606z" class="cls-2" transform="translate(17.148 5.185)"/><path id="패스_221" d="M505.133 284.721a2.666 2.666 0 012.586-2.941 2.358 2.358 0 011.633.68l-.345.419a1.828 1.828 0 00-1.278-.565 2.143 2.143 0 00-1.958 2.407c0 1.423.775 2.4 1.948 2.4a2.233 2.233 0 001.455-.617l.293.418a2.7 2.7 0 01-1.78.723c-1.455 0-2.554-1.068-2.554-2.921" class="cls-2" transform="translate(17.731 5.572)"/><path id="패스_222" d="M512.83 286.877l.326-.44a2.542 2.542 0 001.757.7c.849 0 1.277-.481 1.277-1.057 0-.659-.7-.964-1.349-1.194-.828-.292-1.749-.638-1.749-1.6 0-.817.66-1.507 1.833-1.507a2.689 2.689 0 011.622.6l-.315.417a2.137 2.137 0 00-1.328-.5c-.826 0-1.2.462-1.2.963 0 .619.648.848 1.3 1.09.856.325 1.8.628 1.8 1.706 0 .856-.679 1.59-1.915 1.59a3.26 3.26 0 01-2.052-.764" class="cls-2" transform="translate(19.356 5.572)"/><path id="패스_223" d="M518.037 285.469V281.9h.608v3.5c0 1.143.355 1.677 1.214 1.677.651 0 1.111-.336 1.737-1.09V281.9h.609v5.581h-.513l-.053-.921h-.032a2.475 2.475 0 01-1.884 1.056c-1.161 0-1.686-.712-1.686-2.146" class="cls-2" transform="translate(20.452 5.599)"/><path id="패스_224" d="M524.007 281.926h.5l.076 1.038h.018a1.918 1.918 0 011.58-1.183 1.133 1.133 0 01.566.125l-.124.546a1.194 1.194 0 00-.515-.1c-.492 0-1.089.365-1.5 1.4v3.749H524z" class="cls-2" transform="translate(21.72 5.574)"/><path id="패스_225" d="M527.454 288.637a1.7 1.7 0 01.839-1.329v-.053a1 1 0 01-.5-.9 1.387 1.387 0 01.616-1.036v-.042a2.017 2.017 0 01-.712-1.518 1.949 1.949 0 012-1.978 2 2 0 01.744.146h1.9v.5h-1.254a1.783 1.783 0 01.575 1.339 1.92 1.92 0 01-1.969 1.969 1.885 1.885 0 01-.9-.23.957.957 0 00-.441.774c0 .4.24.7 1.046.7h1.172c1.267 0 1.864.4 1.864 1.288 0 .974-1.047 1.894-2.68 1.894-1.393 0-2.3-.586-2.3-1.528m4.375-.283c0-.6-.439-.817-1.267-.817h-1.141a3.96 3.96 0 01-.7-.093 1.4 1.4 0 00-.69 1.12c0 .681.66 1.142 1.8 1.142 1.214 0 2-.681 2-1.351m-.753-4.6a1.39 1.39 0 10-2.773 0 1.392 1.392 0 102.773 0" class="cls-2" transform="translate(22.433 5.471)"/><path id="패스_226" d="M532.851 284.721a2.669 2.669 0 012.449-2.941c1.35 0 2.156.963 2.156 2.6a3.094 3.094 0 01-.029.44h-3.959a2.113 2.113 0 002.042 2.313 2.5 2.5 0 001.486-.481l.23.451a3.119 3.119 0 01-1.777.544 2.643 2.643 0 01-2.6-2.921m4.05-.387c0-1.351-.617-2.031-1.591-2.031a1.987 1.987 0 00-1.842 2.031z" class="cls-2" transform="translate(23.573 5.572)"/><path id="패스_227" d="M538.683 281.926h.5l.072 1.038h.022a1.918 1.918 0 011.58-1.183 1.128 1.128 0 01.565.125l-.126.546a1.172 1.172 0 00-.512-.1c-.493 0-1.088.365-1.5 1.4v3.749h-.606z" class="cls-2" transform="translate(24.815 5.574)"/><path id="패스_228" d="M542.338 289.876l.136-.513a1.442 1.442 0 00.45.083c.67 0 1.122-.606 1.393-1.412l.147-.472-2.282-5.663h.659l1.3 3.413c.178.481.387 1.068.586 1.571h.053c.167-.5.345-1.089.5-1.571l1.143-3.413h.617l-2.177 6.229c-.336.963-.9 1.863-1.927 1.863a1.48 1.48 0 01-.6-.115" class="cls-2" transform="translate(25.537 5.498)"/><path id="패스_229" d="M556.2 288.018a5.4 5.4 0 01-1.656-.932 2.941 2.941 0 01-2.114.932 2.082 2.082 0 01-2.229-2.084 2.9 2.9 0 011.55-2.23 4.443 4.443 0 01-.513-1.874 1.61 1.61 0 011.623-1.716 1.275 1.275 0 011.318 1.4c0 .995-.889 1.644-1.748 2.292a10.063 10.063 0 002.084 2.5 7.242 7.242 0 001.183-2.45h.575a8.55 8.55 0 01-1.349 2.794 5.44 5.44 0 001.464.838zm-3.708-.513a2.413 2.413 0 001.644-.764 11.413 11.413 0 01-2.146-2.6 2.416 2.416 0 00-1.172 1.758 1.594 1.594 0 001.675 1.6m-.293-4.125c.764-.544 1.455-1.068 1.455-1.833 0-.491-.218-.952-.817-.952a1.1 1.1 0 00-1.046 1.225 3.843 3.843 0 00.408 1.559" class="cls-2" transform="translate(27.218 5.203)"/><path id="패스_230" d="M559.473 285.2a2.658 2.658 0 012.47-2.941 2.507 2.507 0 011.665.68l-.042-1v-2.271h.608v8.32h-.5l-.073-.7h-.021a2.585 2.585 0 01-1.79.837c-1.4 0-2.313-1.046-2.313-2.919m4.093 1.507v-3.224a2.252 2.252 0 00-1.559-.691c-1.068 0-1.885 1.035-1.885 2.408 0 1.444.638 2.386 1.77 2.386a2.336 2.336 0 001.675-.88" class="cls-2" transform="translate(29.184 5.103)"/><path id="패스_231" d="M565.5 284.721a2.67 2.67 0 012.449-2.941c1.351 0 2.157.963 2.157 2.6a2.92 2.92 0 01-.032.44h-3.957a2.112 2.112 0 002.041 2.313 2.5 2.5 0 001.487-.481l.229.451a3.126 3.126 0 01-1.778.544 2.643 2.643 0 01-2.6-2.921m4.051-.387c0-1.351-.617-2.031-1.591-2.031a1.987 1.987 0 00-1.842 2.031z" class="cls-2" transform="translate(30.456 5.572)"/><path id="패스_232" d="M571.334 281.926h.5l.075 1.038h.02a1.918 1.918 0 011.58-1.183 1.136 1.136 0 01.566.125l-.125.546a1.183 1.183 0 00-.512-.1c-.494 0-1.09.365-1.5 1.4v3.749h-.608z" class="cls-2" transform="translate(31.702 5.574)"/><path id="패스_233" d="M575.26 281.926h.5l.074.848h.021a2.593 2.593 0 011.76-.994 1.447 1.447 0 011.539 1.132 2.776 2.776 0 011.883-1.132c1.12 0 1.675.723 1.675 2.157v3.57h-.608v-3.488c0-1.16-.387-1.694-1.2-1.694a2.353 2.353 0 00-1.611 1v4.177h-.606v-3.488c0-1.16-.379-1.694-1.2-1.694a2.359 2.359 0 00-1.613 1v4.177h-.606z" class="cls-2" transform="translate(32.485 5.574)"/><path id="패스_234" d="M583.531 286.1c0-1.236 1.1-1.822 3.557-2.1.022-.828-.219-1.686-1.276-1.686a3.021 3.021 0 00-1.759.639l-.271-.442a3.873 3.873 0 012.113-.73c1.329 0 1.8.952 1.8 2.185v3.54h-.513l-.062-.712h-.02a3.219 3.219 0 01-1.947.847 1.47 1.47 0 01-1.621-1.537m3.557.156v-1.812c-2.2.254-2.952.766-2.952 1.624a1.006 1.006 0 001.142 1.056 2.742 2.742 0 001.811-.869" class="cls-2" transform="translate(33.834 5.573)"/><path id="패스_235" d="M589.539 286.184v-3.475h-.869v-.461l.891-.053.072-1.611h.513v1.616h1.6v.513h-1.6v3.517c0 .7.187 1.161.931 1.161a1.935 1.935 0 00.681-.157l.146.473a3.189 3.189 0 01-.931.208c-1.1 0-1.434-.691-1.434-1.727" class="cls-2" transform="translate(34.99 5.307)"/><path id="패스_236" d="M592.647 284.721a2.55 2.55 0 112.522 2.921 2.64 2.64 0 01-2.522-2.921m4.416 0c0-1.423-.8-2.407-1.894-2.407s-1.884.984-1.884 2.407.795 2.4 1.884 2.4 1.894-.974 1.894-2.4" class="cls-2" transform="translate(35.885 5.572)"/><path id="패스_237" d="M598.958 287.156v-7.495h.606v7.558c0 .261.105.375.251.375a1.072 1.072 0 00.2-.018l.093.479a1.168 1.168 0 01-.407.064c-.5 0-.744-.314-.744-.963" class="cls-2" transform="translate(37.306 5.103)"/><path id="패스_238" d="M601.721 284.721a2.55 2.55 0 112.521 2.921 2.64 2.64 0 01-2.521-2.921m4.416 0c0-1.423-.806-2.407-1.9-2.407s-1.884.984-1.884 2.407.8 2.4 1.884 2.4 1.9-.974 1.9-2.4" class="cls-2" transform="translate(37.928 5.572)"/><path id="패스_239" d="M607.647 288.637a1.7 1.7 0 01.839-1.329v-.053a1 1 0 01-.5-.9 1.388 1.388 0 01.617-1.036v-.042a2.017 2.017 0 01-.712-1.518 1.949 1.949 0 012-1.978 2 2 0 01.744.146h1.9v.5h-1.255a1.78 1.78 0 01.576 1.339 1.921 1.921 0 01-1.969 1.969 1.89 1.89 0 01-.9-.23.957.957 0 00-.441.774c0 .4.241.7 1.046.7h1.172c1.268 0 1.865.4 1.865 1.288 0 .974-1.046 1.894-2.68 1.894-1.392 0-2.3-.586-2.3-1.528m4.376-.283c0-.6-.439-.817-1.267-.817h-1.141a3.959 3.959 0 01-.7-.093 1.4 1.4 0 00-.691 1.12c0 .681.66 1.142 1.8 1.142 1.215 0 2-.681 2-1.351m-.753-4.6a1.391 1.391 0 10-2.775 0 1.393 1.393 0 102.775 0" class="cls-2" transform="translate(39.261 5.471)"/><path id="패스_240" d="M613.133 289.876l.136-.513a1.45 1.45 0 00.451.083c.669 0 1.12-.606 1.392-1.412l.146-.472-2.281-5.663h.659l1.3 3.413c.178.481.387 1.068.586 1.571h.053c.167-.5.344-1.089.5-1.571l1.139-3.413h.619l-2.176 6.229c-.336.963-.9 1.863-1.927 1.863a1.471 1.471 0 01-.6-.115" class="cls-2" transform="translate(40.46 5.498)"/><path id="패스_241" d="M428.307 295.785l.138-15.766 1.11.6a16.433 16.433 0 006.267 1.909l.81.078-.134.8a17.956 17.956 0 01-6.794 11.341zm1.637-13.281l-.089 10.136a16.435 16.435 0 005-8.7 17.878 17.878 0 01-4.909-1.433" class="cls-2" transform="translate(1.638 5.075)"/><path id="패스_242" d="M431.686 273.969l-1.21-.943a16.471 16.471 0 00-8.55-3.392l-.81-.078.135-.8a17.971 17.971 0 019.482-13.047l1.121-.583zm-8.788-5.748a17.959 17.959 0 017.3 2.74l.116-13.268c-.466.289-.914.6-1.34.925a16.436 16.436 0 00-6.073 9.6" class="cls-2" transform="translate(.02)"/><path id="패스_243" d="M431.582 285.781l-1.11-.6a17.854 17.854 0 01-5.718-4.872 18.087 18.087 0 01-3.484-13.93l.116-.7.707.07a17.977 17.977 0 019.336 3.7l.294.232zm-5.624-6.4a16.341 16.341 0 004.127 3.8l.114-12.764a16.466 16.466 0 00-7.534-3.081 16.325 16.325 0 003.293 12.04" class="cls-2" transform="translate(0 2.114)"/><path id="패스_244" d="M436.36 286.813l-.707-.069a17.953 17.953 0 01-6.843-2.084l-.4-.217.145-16.455 1.214.943a18.041 18.041 0 016.71 17.18zm-6.425-3.278a16.415 16.415 0 005.146 1.613 16.317 16.317 0 00-3.292-12.04 16.575 16.575 0 00-1.745-1.937z" class="cls-2" transform="translate(1.661 2.592)"/><path id="패스_245" d="M453.8 264.477a11.44 11.44 0 006.155 9.975l-1.256 1.693a12.491 12.491 0 01-5.924-7.283 12.787 12.787 0 01-5.951 7.719l-1.283-1.719c3.386-1.615 6.182-6.026 6.182-10.386v-4.13h2.077zm10.668 16.923h-2.1v-23.052h2.1z" class="cls-2" transform="translate(5.516 .725)"/><path id="패스_246" d="M485.705 277.717H464.9V276h20.8zm-4.67-11.079c.051-1.206.051-2.384.051-3.565v-1.1h-13.72v-1.717h15.772v2.82a47.952 47.952 0 01-1 11.235l-2.051-.206a40.625 40.625 0 00.871-5.874l-13.873.769-.307-1.746z" class="cls-2" transform="translate(9.203 1.154)"/><path id="패스_247" d="M493.448 264.707v-3.18h-8.385v-1.717h10.464v6.514h-8.335v3.36a58.379 58.379 0 0010.746-.745l.2 1.693a60.115 60.115 0 01-11.156.769h-1.842v-6.694zm2.976 8.72c0 3.206 3.591 5.591 7.72 6.232l-.8 1.616c-3.488-.615-6.618-2.334-8-4.949-1.36 2.641-4.54 4.334-8 4.949l-.821-1.616c4.1-.641 7.745-3 7.745-6.232v-.666h2.155zm6.362.488h-2.1v-15.568h2.1z" class="cls-2" transform="translate(13.439 .725)"/><path id="패스_248" d="M515.765 270.884a9.426 9.426 0 01-5.462-5.155 9.722 9.722 0 01-5.82 5.847l-1.1-1.717a8.384 8.384 0 005.821-7.849v-2.36h2.1v2.282a7.887 7.887 0 005.591 7.31zm6.643 6.1c0 2.745-2.923 4.334-7.643 4.334s-7.669-1.589-7.669-4.334c0-2.769 2.95-4.334 7.669-4.334s7.643 1.566 7.643 4.334m-2.078 0c0-1.692-2.1-2.693-5.565-2.693s-5.565 1-5.565 2.693c0 1.667 2.1 2.668 5.565 2.668s5.565-1 5.565-2.668m-.1-12.027h-5v-1.719h5v-4.872h2.129v13.592h-2.129z" class="cls-2" transform="translate(17.283 .73)"/><path id="패스_249" d="M535.575 262.617H522.7v-1.694h5.488v-2.742h2.1v2.742h5.284zm-6.36 9.719c-3.077 0-5.205-1.693-5.205-4.282 0-2.566 2.128-4.258 5.205-4.258 3.053 0 5.206 1.692 5.206 4.258 0 2.589-2.154 4.282-5.206 4.282m0-1.616c1.923 0 3.232-1.05 3.232-2.666 0-1.591-1.308-2.642-3.232-2.642s-3.232 1.051-3.232 2.642c0 1.616 1.31 2.666 3.232 2.666m12.49 6.719c0 2.489-2.9 3.924-7.643 3.924-4.77 0-7.669-1.435-7.669-3.924 0-2.513 2.9-3.923 7.669-3.923 4.745 0 7.643 1.41 7.643 3.923m-2.181 0c0-1.487-2.078-2.307-5.463-2.307s-5.487.82-5.487 2.307c0 1.463 2.1 2.309 5.487 2.309s5.463-.846 5.463-2.309m-.051-11.823H535.6v-1.692h3.874v-5.54h2.126v14.849h-2.129v-3.128h-3.9v-1.719h3.9z" class="cls-2" transform="translate(21.338 .688)"/><path id="패스_250" d="M550.38 274.483c2.23-.127 4.512-.307 6.642-.641l.178 1.564a82.118 82.118 0 01-14.9 1l-.256-1.77c1.846 0 3.974 0 6.232-.077v-3.975c-2.976-.385-5.078-2.461-5.078-5.36 0-3.206 2.591-5.385 6.13-5.385 3.616 0 6.179 2.179 6.179 5.385 0 2.9-2.076 5-5.127 5.36zm-1.052-5.616c2.41 0 4.128-1.487 4.128-3.642 0-2.129-1.719-3.591-4.128-3.591-2.359 0-4.079 1.461-4.079 3.591 0 2.155 1.72 3.642 4.079 3.642m11.31 12.541h-2.1v-23.081h2.1z" class="cls-2" transform="translate(25.401 .721)"/><path id="패스_251" d="M567.937 274.454c2.515-.1 5.079-.23 7.413-.538l.127 1.537a93.722 93.722 0 01-14.258.871l-.232-1.742c1.461 0 3.153-.026 4.875-.077v-7.078h2.075zm3.18-3.411a48.811 48.811 0 00.692-8.464h-9.565v-1.718h11.617v1.256a57.231 57.231 0 01-.641 9.13zm11.412-1.308h-3.668v11.617h-2.1v-23h2.1v9.618h3.668z" class="cls-2" transform="translate(29.349 .725)"/><path id="패스_252" d="M580.56 274.581a103.567 103.567 0 0014.976-.8l.18 1.564a82.14 82.14 0 01-14.9 1zm13.463-9.13c0 3.206-2.564 5.412-6.155 5.412-3.566 0-6.156-2.206-6.156-5.412 0-3.23 2.59-5.411 6.156-5.411 3.591 0 6.155 2.181 6.155 5.411m-10.258 0c0 2.129 1.719 3.616 4.1 3.616s4.1-1.487 4.1-3.616c0-2.154-1.718-3.615-4.1-3.615s-4.1 1.461-4.1 3.615m15.389 15.949h-2.1v-23.052h2.1z" class="cls-2" transform="translate(33.165 .725)"/><path id="패스_253" d="M606.255 270.606c-2.282.1-4.489.129-6.385.129l-.283-1.744a125.075 125.075 0 0014.824-.666l.179 1.514a71.343 71.343 0 01-6.232.666v4.54h-2.1zm-4.849-7.334c0-2.411 2.31-4 5.669-4s5.668 1.589 5.668 4c0 2.462-2.309 4.026-5.668 4.026s-5.669-1.563-5.669-4.026m17.724 15.85v1.718h-16.259v-6.694h2.1v4.976zm-15.722-15.85c0 1.488 1.488 2.462 3.668 2.462s3.669-.974 3.669-2.462c0-1.463-1.488-2.437-3.669-2.437s-3.668.974-3.668 2.437m13.03 8.668v-13.593h2.1v17.517h-2.1V273.5h-4.669v-1.56z" class="cls-2" transform="translate(37.447 .725)"/></g></g></svg>